<?xml version="1.0" standalone="no"?>
<!DOCTYPE svg PUBLIC "-//W3C//DTD SVG 20010904//EN"
 "http://www.w3.org/TR/2001/REC-SVG-20010904/DTD/svg10.dtd">
<svg version="1.0" xmlns="http://www.w3.org/2000/svg"
 width="1263.000000pt" height="1263.000000pt" viewBox="0 0 1263.000000 1263.000000"
 preserveAspectRatio="xMidYMid meet">
<metadata>
Created by potrace 1.11, written by Peter Selinger 2001-2013
</metadata>
<g transform="translate(0.000000,1263.000000) scale(0.100000,-0.100000)"
fill="#000000" stroke="none">
<path d="M7105 12530 c-231 -54 -431 -101 -445 -104 -14 -2 -95 -21 -180 -41
-85 -19 -193 -45 -240 -56 -47 -10 -132 -30 -190 -44 -58 -13 -312 -72 -565
-130 -253 -58 -478 -110 -500 -115 -38 -10 -816 -190 -1470 -340 -165 -38
-408 -94 -540 -125 -132 -30 -249 -57 -260 -60 -11 -2 -99 -22 -195 -45 -96
-23 -233 -54 -305 -70 -71 -16 -314 -72 -540 -125 -225 -52 -419 -97 -430 -99
-11 -3 -139 -32 -285 -66 -146 -34 -272 -63 -280 -65 -8 -2 -34 -8 -58 -13
-30 -7 -53 -21 -75 -47 -27 -31 -40 -37 -89 -44 -31 -4 -55 -4 -52 1 3 4 0 8
-5 8 -6 0 -11 7 -11 15 0 12 -8 14 -37 9 -113 -17 -238 -82 -290 -150 l-28
-38 3 -554 3 -554 38 -96 c22 -53 156 -383 299 -732 143 -349 285 -696 315
-770 30 -74 153 -373 272 -665 119 -291 241 -588 270 -660 277 -679 691 -1692
740 -1810 19 -44 70 -170 115 -280 44 -110 85 -210 90 -222 6 -13 14 -33 20
-45 5 -13 203 -498 440 -1078 237 -580 460 -1127 496 -1215 78 -189 129 -313
389 -950 108 -264 245 -599 305 -745 60 -146 120 -295 135 -332 33 -84 38 -86
150 -62 54 11 220 78 228 91 14 23 87 54 140 60 48 5 202 57 392 133 44 18
114 45 155 60 151 56 296 111 315 120 11 5 117 46 235 91 118 44 253 96 300
114 47 18 346 133 665 255 319 122 762 292 985 377 223 85 1033 396 1800 689
767 294 1429 548 1470 564 41 16 271 104 510 195 448 172 510 199 510 223 0 7
-31 69 -69 137 l-69 123 40 49 c81 98 214 206 423 344 101 67 159 97 260 135
82 31 142 60 163 79 l33 30 -52 90 c-52 90 -255 443 -2224 3850 -582 1007
-1069 1850 -1083 1875 -14 25 -55 97 -92 160 -37 63 -227 392 -422 730 -579
1004 -842 1459 -1014 1755 -89 154 -168 281 -175 282 -8 0 -203 -43 -434 -97z
m-6397 -2305 c-3 -3 -9 2 -12 12 -6 14 -5 15 5 6 7 -7 10 -15 7 -18z m2356
-6751 c3 -8 2 -12 -4 -9 -6 3 -10 10 -10 16 0 14 7 11 14 -7z m66 -159 c0 -5
-5 -3 -10 5 -5 8 -10 20 -10 25 0 6 5 3 10 -5 5 -8 10 -19 10 -25z"/>
<path d="M6468 45 c-2 -2 -149 -6 -328 -9 -179 -4 -372 -9 -430 -11 -58 -2
-204 -6 -325 -10 -121 -4 -222 -9 -224 -11 -2 -2 971 -4 2164 -4 1193 0 2166
2 2164 4 -2 2 -83 7 -179 10 -197 7 -427 15 -605 22 -138 5 -2232 14 -2237 9z"/>
</g>
</svg>
